P1
# CREATOR: pbmtovbm version 1.99
219 173
11111111111111111111111111111111111111111111111111111111111111111111
11111111111111111111111111111111111111111111111111111111111111111111
11111111111111111111111111111111111111111111111111111111111111111111
11111111111111111111111111111111111111111111111111111111111111111111
11111111111111111111111111111111111111111111111111111111111111111111
11111111111111111111111111111111111111111111111111111111111111111111
11111111111111111111111111111111111111111111111111111111111111111111
11111111111111111111111111111111111111111111111111111111111111111111
11111111111111111111111111111111111111111111111111111111111111111111
11111111111111111111111111111111111111111111111111111111111111111111
11111111111111111111111111111111111111111111111111111111111111111111
11111111111111111111111111111111111111111111111111111111111111111111
11111111111111111111111111111111111111111111111111111111111111111111
11111111111111111111111111111111111111111111111111111111111111111111
11111111111111111111111111111111111111111111111111111111111111111111
11111111111111111111111111111111111111111111111111111111111111111111
11111111111111111111111111111111111111111111111111111111111111111111
11111111111111111111111111111111111111111111111111111111111111111111
11111111111111111111111111111111111111111111111111111111111111111111
11111111111111111111111111111111111111111111111111111111111111111111
11111111111111111111111111111111111111111111111111111111111111111111
11111111111111111111111111111111111111111111111111111111111111111111
11111111111111111111111111111111111111111111111111111111111111111111
11111111111111111111111111111111111111111111111111111111111111111111
11111111111111111111111111111111111111111111111111111111111111111111
11111111111111111111111111111111111111111111111111111111111111111111
11111111111111111111111111111111111111111111111111111111111111111111
11111111111111111111111111111111111111111111111111111111111111111111
11111111111111111111111111111111111111111111111111111111111111111111
11111111111111111111111111111111111111111111111111111111111111111111
11111111111111111111111111111111111111111111111111111111111111111111
11111111111111111111111111111111111111111111111111111111111111111111
11111111111111111111111111111111111111111111111111111111111111111111
11111111111111111111111111111111111111111111111111111111111111111111
11111111111111111111111111111111111111111111111111111111111111111111
11111111111111111111111111111111111111111111111111111111111111111111
11111111111111111111111111111111111111111111111111111111111111111111
11111111111111111111111111111111111111111111111111111111111111111111
11111111111111111111111111111111111111111111111111111111111111111111
11111111111111111111111111111111111111111111111111111111111111111111
11111111111111111111111111111111111111111111111111111111111111111111
11111111111111111111111111111111111111111111111111111111111111111111
11111111111111111111111111111111111111111111111111111111111111111111
11111111111111111111111111010010111111111111111111111111111111111111
11111111111111111111111111111111111111111111111111111111111111111111
11111111111111111111111111111111111111111111111111111111111111111111
11111111111111111111111111111111111111111001010101011111111111111111
11111111111111111111111111111111111111111111111111111111111111111111
11111111111111111111111111111111111111111111111111111111111111111111
11111111111111111111111111111111111111111111100000000000000000000000
00000000111111111111111111111111111111111111111111111111111111111111
11111111111111111111111111111111111111111111111111111111111111111111
11111111111111111111111111111111111111111111111111111111111000000000
00000000000000000000000111111111111111111111111111111111111111111111
11111111111111111111111111111111111111111111111111111111111111111111
11111111111111111111111111111111111111111111111111111111111111111111
10000000000000000011010100100000000000000000011111111111111111111110
01111111111111111111111111111111111111111111111111111111111111111111
11111111111111111111111111111111111111111111111111111111111111111111
11111111111111110000000000000000001010010000000000000000000001111111
11111111111111011111111111111111111111111111111111111111111111111111
11111111111111111111111111111111111111111111111111111111111111111111
11111111000001111111111111000000000001111111111111010101111111111111
10000000000011111111111111110000001111111111111111111111111111111111
11111111111111111111111111111111111111111111111111111111111111111111
11111111111111111111111000001111111111111100000000000111111111101011
01010111111111100000000000011111111111111100000001111111111111111111
11111111111111111111111111111111111111111111111111111111111111111111
11111111111111111111111111111010110000000111111111110000000000111111
00000000000000000000000000000011111110000000001111111111111000000000
11011111111111111111111111111111111111111111111111111111111111111111
11111111111111111111111111111111111111111111111111000000111111111111
00000000001111110000000000000000000000000000011111110000000000111111
11111110000000011110111111111111111111111111111111111111111111111111
11111111111111111111111111111111111111111111111111111111100000000000
00111111111100000000011111000000001111111111111111110110100000000001
11111000000011111111111000000000000011111111111111111111111111111111
11111111111111111111111111111111111111111111111111111111111111111111
11100000000000001111111111000000000111100000000011111111111111110111
01100000000001111110000000011111111110000000000000111111111111111111
11111111111111111111111111111111111111111111111111111111111111111111
11111111111111111000000000000011111111000000000111100000011111111111
11110110101110111111111101000000001111000000001111111100000000000001
11111111111111111111111111111111111111111111111111111111111111111111
11111111111111111111111111111111000000000000111111111000000001111100
00001111111111011011111111011110101010110000000011111000000011111111
10000000000001111111111111111111111111111111111111111111111111111111
11111111111111111111111111111111111111111111100000000000001111111000
00000111100000011111111111011111111010101111011111101000011100000001
11100000011111111100000000000011111111111111111111111111111111111111
11111111111111111111111111111111111111111111111111111111111100000000
00000111111111000000111100000011111110101110110111111111011110101110
10000111100000011110000001111111110000000000011111111111111111111111
11111111111111111111111111111111111111111111111111111111111111111111
11000100000000000011111110000000111100000111100000111111101111101101
10111000011111100000111111000000111100000011111111000000000001111101
11111111111111111111111111111111111111111111111111111111111111111111
11111111111111111101010000000000011111111000000011110000011110000111
11111110111111111101100101010100000101111000000001110000001111111100
00000000111111111111111111111111111111111111111111111111111111111111
11111111111111111111111111111110000000000000001111111100000001110000
00111101000000111111111101011010110100000111111111111011111100000011
11000001111111111000000001111001111111111111111111111111111111111111
11111111111111111111111111111111111111111111100000110000000001111111
10000000111000001110110000011111111101111110111101000001111111111011
11010101000001110000001111111110000000001110101111111111111111111111
11111111111111111111111111111111111111111111111111111111111000000100
00000111111111000000111000011111011111111011011110111111011110111111
11101011010110101111101100000001110000011111111110000000100000111111
11111111111111111111111111111111111111111111111111111111111111111111
11111100000100000001111111110000000011100001111111011010111110111110
10111101110101101111101111011110100110100000011100000111111111101000
00101000011111111111111111111111111111111111111111111111111111111111
11111111111111111111000000111001111111111000000011100001111111111111
11101011111101111101011011110110101111101111011111111111100000011000
00111111111111111110000011111111111111111111111111111111111111111111
11111111111111111111111111111111111100000111101111111111100000001100
00011111110110101111110110111011111101110111111111101111110110101010
10101000011110000111111111111111110000001111111111111111111111111111
11111111111111111111111111111111111111111111111111000000111111111111
11000000011010001111110111111111011011011110110101111011010110110111
01011111111111101010000000011100000111111100000111100000111111111111
11111111111111111111111111111111111111111111111111111111111111110000
00111111111111110000000111000011111111010101011111111111011111110101
11111101111110111110101010101101001100000111000001111111100001111000
00111111111111111111111111111111111111111111111111111111111111111111
11111110000000000011100001111110000000100000111111101111111110101101
10111011011111110110111101011101101111011110100000111100000100000011
11111000000000000011111111111111111111111111111111111111111111111111
11111111111111111111101011000000111110011111110000001110001111101111
11011011111111111111111110111111101110111110111111011110111000001011
00000010000001111110000000000000111111111111111111111111111111111111
11111111111111111111111111111111110000000000000000001111111000001111
00011111111011011111110110101011010100000001111111111110111110101101
01101011111111010000011100001111111100000000000111100011111111111111
11111111111111111111111111111111111111111111111111000000000000000001
11111100000001100011111011111110101011101111101111100000011111111101
11110111111111111111110110101111000000100000011111110000000000111100
11111111111111111111111111111111111111111111111111111111111111100000
00000000000001111111000000110011111111110101011111110111010111011011
11111010110111101011101011010101011011101111011010000010000001111110
00000000000010001111111111111111111111111111111111111111111111111111
11111111111100000000000000001111111000000111000011101011111110110111
10111110110111110101111111101111111111111111111110110111101101110000
00110000111111110000000000110000111111111111111111111111111111111111
11111111111111111111111110000001000000001111111100000011100011111111
11110101111111011101011111111011111110110111101101010101010101000000
11111111111110000010000011111111000000001100001111111111111111111111
11111111111111111111111111111111111111110000000000000000111111110000
00110101111110111011111010101110111110110111111011011111101111111111
11110111010000011111011010100000000000011111111100000000110000011111
11111111111111111111111111111111111111111111111111111100000000000001
11111111100000001000011111011010100000011111010101100000001111111111
01111101101101010111101101010111010101101111000011000001111111111000
00000000011111111111111111111111111111111111111111111111111111111111
10000000100000011111111100000010101011101101101100000011111001011000
00001111111011111010111111011111010111111011011111010011101000001000
00111111111000000001000011111111111111111111111111111111111111111111
11111111111111110000000100011111111111000000101000111111110111010000
01011000001111000001111111111011111110101111101111101010101101000000
01111101000000100011111111111111100000001111111111111111111111111111
11111111111111111111111111111111000000010101111111111100000001010011
11101110110000000111100000111000001111111111111011111111110111110111
10111010101000000111111000001000001111111111111110000001111111111111
11111111111111111111111111111111111111111101010000001111111111111110
00000010000111111011111111111111110111111011111111011101010101110101
10111111011110101101000000111111110110100000000001111111111111100000
00111111111111111111111111111111111111111111111111111111001010000001
11111111111111000000111001111111110110111101011011101011110110110111
11111111111111111101101110101110110000000111111111111000001000011111
11110111110000001111110111111111111111111111111111111111111111111111
11110000100000011111000111111000000000101111110111111101111111110111
10111111111111011011011010110100010111111111011101101011111111101101
10100011000001111100000000000000111100111111111111111111111111111111
11111111111111111010001000000011111110011111100001110010111111110110
11101101101110111101101010101110111101111111110101111011011111111100
00011111011111101000000000011111100000000000000111100111111111111111
11111111111111111111111111111111000000100000000000001111111000000100
10111110111111110111111111011101111111111111111110111101010000011111
11111011010101100000011111000000000101000001111110000000000001110000
11111111111111111111111111111111111111111111111000000100000000000001
11111000000101001111111101010111110101011110110101011011011010111110
11111100000011110101111011110100000101111110000010001000001111111000
00000000111100011111111111111111111111111111111111111111111111000000
10000000000011111111000001000011111110111111101111111110111111111101
11111111101010110101000000111100000001000011111101011110000000000001
11000111111110000000000111000011111111111111111111111111111111111111
11111111010000010000000000111111110000001101001111101111010111011011
01110101011011110110101111111110110100000111000000110000111111010111
01100000000100100000111111100000000001110000011111111111111111111111
11111111111111111111111100000001000000001111111110000001010011111111
10111111111111111101111111110111101111010100010000000000001111111011
01010100000000111111111111000010100001111111100000000110000011111111
11111111111111111111111111111111111111000000010000000001111111110000
01010011111111011110110110110110111011010111101111101111011000000000
00000111110110100101101010001111111110110000010000111111111100000001
11000001111111111111111111111111111111111111111111111100000001110000
11111111110000000100001010111111101111111011101101111111010111101111
01010000000000000000000011111111100000001111100000011111110001000001
11111111111000101000001111111111111111111111111111111111111111111111
01000000110000011111111111000001000010111011111111111011110111111010
10111110111101101110100000000000000001111111111110000001111101000111
11010000101000111111111110000110000001111111111111111111111111111111
11111111111111110000000011111111111111110000001100001000111111011101
11011111010111111110111010110110000001111100000011110100000011111111
11111010010101101110000100000111111010111111000000001111111111111111
11111111111111111111111111111100000000111111111111111110000000100110
00001111111111101111011111110101101101111011101000011111010000011111
10000011111111111111110000111111010100010000111111001111111100000001
11111111111111111111111111111111111111111101011000000011111110000111
11000001000101111111110110101111010110101011101011111111111111101010
11110000000000001111011111101010100000000111111110000100000111111000
00011000000011111111111111111111111111111111111111111111010110000000
01111110000111110000010110011111111011111111011111111111110100011111
01011010101001101101000001000011110011111111111110000001111111010000
10100011111100000011100000001111101111111111111111111111111111111111
11110000110000000000000000111111000000100101111101111011011101101010
10101110100011111111111111111011111110010111101000000000000111111100
00011010011110000000000111110000000000000001111100111111111111111111
11111111111111111101001010000000001000001111111000001000011111111011
11110111111111101111010000111111101110101011111011000000110111000000
00001111111010000011111111100001100001111110000000000000111111000111
11111111111111111111111111111111100000100000000000000111111110000011
01011110000000111111111011010111010100000101110111010000001111111110
11101110101000000000000011111011000000001110000000011111111000000000
00111110000111111111111111111111111111111111111110000010000000000000
00111111100000000000111100000001111111111101101111110000011011111111
10000001111101100110111110000000000000011111110110000000111000110000
11111100000000000001111000011111111111111111111111111111111111100000
01100000000000011111111000000100101111010000011111011010111110101000
00000011111111010000111111111111111101101111111111111111011011110100
01110000100000111111110000000000111100000111111111111111111111111111
11111111110000011100000000001111111110000001010011111000000111111111
11110101101010000000011111111100001011111011110110111111111111111111
10111111101010101110100000001111111100000000000111100000111111111111
11111111111111111111111111000000111100000000111111111100000100011111
11111111101101111011110111100000001111111011011111111011100011110100
00000011111101111110101111111111010000101000011111111100000001111100
00011111111111111111111111111111111111110000000111000000001111111111
00000100001011111111110111111011110101001010000001111111111111011101
10101010101100000000011111111110111111101010101111010010000011111111
10000000111110000011111111111111111111111111111111111110000000011110
00001111111111100000001001111110101011100000111110110100000000000011
11111110101011110000000101000000011111111111011111101111111111101000
00000011111111111100111110000000111111111111111111111111111111111111
11110000011111000001111111111000000100000111111101111100000111111011
01000000000011111111111101011010000000011100000011111111111111101111
01010101011010000000001111111111110001111000000011111111111111111111
11111111111111111000000001111111111111111111100000010011111110111010
10000001000000000000000000000000000100000011111110000011000000100001
01111111111101111111111101000001000111111000111111111000000011111111
11111111111111111111111111111111110000000111111111111111111000000101
00011111101111010100010100000000000000000000000000010000001111110000
00010000001000011111111011111011101010111010000100001111110101111111
00000000011111111111111111111111111111111111111100000000001111111100
00111111000000000101111111011111111101101000000000000000001111111111
10111011111111111101111110101010101011101010100001111110100010000011
11111000011111000000000111111111111111111111111111111111111111010000
00011111111101000111100000010100111111011101101010110100000000000000
00001111111111111011111101111011111010101010101111101011110000011111
11100000100001111100000111110000000001111111111111111111111111111111
11111110000000000000011111000001111110000001001011111110111111111101
11000011111000000011110000011000000111111101110100000111111111101111
11101100101011010000000000001111110000000000000000011101011111111111
11111111111111111111110000000000000011111000001111110000000100111111
11111011011011101010000101000000001111000011100000011111111111010100
01111111011110110111010001101111110000100001111111000000000000000011
11011111111111111111111111111111111110000000000000000000000011111110
00001000000000000111111101110111111110110100000111110101010111000000
01111010100000011111101110011111111111110111101000010100011111111000
00000000000011100001111111111111111111111111111111111000000000000000
00000001111111100000101001010000111110111011110101011011000000011111
01010111110000011111110110000001011111111010101111011111110111100000
00000011111100000000000000011110001111111111111111111111111111111110
00000010000000000000111111111000000010000000001111111111110101111111
10110000001111110000000100000000100000001000111111110000000111111111
01101110101000100001111111110000000000001111000011111111111111111111
11111111111111000000100000000000000111111111000000000001000001111111
11111111010101011010000011111101000011010000001100000000000111111010
10000111110111111011011110000000001111111100000000000011111000011111
11111111111111111111111111111110000001100000000000111111111100000010
10011111111110101010000000111111111100000001111100000000001111111010
00000000111111111111111011101011111111000001010001111111111100000000
11110000001111111111111111111111111111111111000000010000000000001111
11111100000010100111111011111111101000011111101000000000011110000000
00001011111100000000001111111111111101110111110101101100001000011111
11111000000000111100000011111111111111111111111111111111111110000000
11110000000111111111111000000000001000000111111111111111111111111100
10010111111111111110110000000000000000000000111111111111111011111011
00000110000111110001111000001110000000111111111111111111111111111111
11111110000000011110000001111111111110000001000000000001111110111101
10101010101101000101111111111101010100000000000000000000000111111111
11110111101111011000010000111111001111100001111000000011111111111111
11111111111111111111111100000000011111101111100011111100000010101100
01111111111011111010100000010111111111101101101110100000011000000001
11111111110110110111100000000110010100001111110000111111111100000000
11111111111111111111111111111111111111100000000111111011111100011111
10000010001010100111101101101011101000001001111111010111101110011010
00010110000000111111111111101111101110000000110101010001111111000111
11111100000000001111111111111111111111111111111111111100000000001111
11111000011111100000001000111111110111111111110110000000010111111110
00000111111101000111111000001111111111101111011110100000001101011000
01111111000001111110000000000111111111111111111111111111111111111111
10000000000111111111000001111110000010100011111111110110101011101000
10000111110101000000111111010000001010000000111111110110101110101010
00000101000100000111111100001111110000000000111111111111111111111111
11111111111111111000000000001111110000111111110000000001011111011011
11111111101111111111101101111111011000001111111111111000011111111111
10111111111111111110100011000001111111000000010000000000011111111111
11111111111111111111111111111111100000000001111111000001111111000001
10000111111111111011101111101101110111111101101110101001011111110101
01000011111101111111101010110111011010000100001111111100000010000000
00001111111111111111111111111111111111111111111000000000000000000000
11111111100000000001111101011010000000100000111111000001111011110000
00011111111111110001111101111010110111111111101101000000000011111111
00000000000000000111111111111111111111111111111111111111111111110000
00000000010000001111111100000010100011111101111000000010000001111010
00011111101010000001111111010110100011111011111111110111010110110000
00000001111111110000000000000000011111111111111111111111111111111111
11111111010000000000000000000111111111100000001000101010110100000000
11000000000111101011111111000000111110101111111111110111111101101111
10111111110000001000011111111100000000000000011111111111111111111111
11111111111111111111111101000000000000000001111111111100000011000011
11101100000000110000000001111010111101101100000111111111111010101111
11011011111101111111011010000101000011111111100000000000000111111111
11111111111111111111111111111111111110100011100000000000000111111111
11100000010000000011111110000010100111111010000000011111111111000000
00111111111101101111111011011011011110100001010000111111000111100000
00000111110000111111111111111111111111111111111111111000000000000000
00000111111111111000000101000000111111100001000000010101111000000011
11111110110000001111111111111111101101111111110110111101000010000111
11110011100000000000111110000111111111111111111111111111111111111110
10000011100000000000111100011111100000111000111111101111110110001111
11000000000011111110111011010000000111111011010111111101101011111010
00000100001111110000011100000011111110000011111111111111111111111111
11111111111111100000011110000000000111110011111100000001010011111111
01101100001010110111000000011111111101110100000000111111111111101101
11111111010111000001000000111111000011110000001111110000001111111111
11111111111111111111111111111110000000111111100001111100001111110000
00110100110110111111111111011000000111101111111101111111010000111110
11011010111111101010000001111000001000011111111000011111111111100000
00011111111111111111111111111111111111111111111000000111111100000111
10001111111000000101000111111110110110111111010001111011011101111101
01010000011111101111111101010111101000001110100010000001111110000001
11111111110100000011111111111111111111111111111111111111111111000000
00011111111111000000111111100000011100001110001001011101100000001111
11111011110111111111111110110111101011011111010111000010100001000000
11111111000000111111110000000001111111111111111111111111111111111111
11111111111000000011111111111000000011111110000000100011111110000010
11111100000011111111111011101101101111111101110111111110101111101000
00101000010100001111111100000111111110000000001111111111111111111111
11111111111111111111111110000000000001111111000001111111110000000111
00001000000000111110000001111110110111110110110111010000001111110110
11111101011011111000001000000111111110000000000100000000000011111111
11111111111111111111111111111111111111101000000000001111110000000111
11111000000001000001000000001111111010001111111111010111011010101100
00000011111111111010111101101010000000110000111111111100000000100000
00000001111111111111111111111111111111111111111111111111100000000000
00000000000011111111110000000010000111111111101101000000001111101111
01011000000101100000111111101101111110110111010000011000001111111111
00000000000000000000111111111111111111111111111111111111111111111111
11101000000000000000000000111111111110000000111010111111110111111000
00001111111110111101000000111100000111111111111011011011010100000111
00001111111111000000000000000000001111111111111111111111111111111111
11111111111111111111100000000000000000000111111111111100000001110000
11101110110110000000111111101101011111010000111111111110101101110110
11111000001110000011111110101100000000000000000111111111111111111111
11111111111111111111111111111111111010000000000000000000111111111111
00000001100000101111111011101000001011111111111111110100001111111101
01111101101111110100100001110000011111110101100000000000000001111111
11111111111111111111111111111111111111111111111111111100000000000000
00011111010111111100000011110000100000011111111111110101010101101011
11111011111111111011111011010101010000111000001111111100001110000000
00000111111111111111111111111111111111111111111111111111111111111111
10000000000000000001111101011111100000001100001011000101111111101111
11110111101111010111110101011011110101101101110100000011000000111111
10000111100000000000011111111111111111111111111111111111111111111111
11111111111111111110000000000000111110000111111110000000111100000101
11111101101101010111110111111111101111111111110110111010110000000111
10000011111111100000111000000011111111111111111111111111111111111111
11111111111111111111111111111111101000000000000011110000111111110000
00001000001001011111111111111111010111111011011110101101101011111101
10110110000001010000011111111100000111000000011111111111111111111111
11111111111111111111111111111111111111111111111111111111111111111110
00001111111111000000011100000111111110110111011111011011101110111111
11111111010101110101000001110000001111111111000000011111111111111111
11111111111111111111111111111111111111111111111111111111111111111111
11110101111110000001111111100000000111000001111111111101101101010111
10111101111011010101011011011011100000001110000001111111111000000111
11111111111111111111111111111111111111111111111111111111111111111111
11111111110101111111111111000000011111111111000000001111100001111111
11111111111111011101111101111111111101101110100000011111000001111111
11111000000011111111100000001111111111111111111111111111111111111111
11111111111111111111111111010111111111111110000001111111111110000000
01110000001111110110101101010110111101111010110110111111011101000001
11100000011111111111110000001111111110000000111111111111111111111111
11111111111111111111111111111111111111110000000000000000000000011111
11111111100000000111100000011111111111111111111101110100000111111101
01000000001111000000111111111000011000000000000000000011111111111111
11111111111111111111111111111111111111111111111111111111000000000000
10000000000011111111111111000000011110000001111111110101011010110111
01000001111011101100000000111100000011111111000001100000000000000000
00111111111111111111111111111111111111111111111111111111111111111111
11111000000000000000000001111100011111111100000000011110000000111111
11111011101110110100111111110000000111111000000011111111100000111000
00000000000001111111111111111111111111111111111111111111111111111111
11111111111111111111100000000000000000000011110000111111111000000011
11100000000111111111101111011111010001011011000000001111000000011111
11111000000111000000000000000011111111111111111111111111111111111111
11111111111111111111111111111111111111000000000000000000111100001111
11111111000000000111111000000000111111111111010101010000000001111110
00000001111111111110000001110000000000001111111111111111111111111111
11111111111111111111111111111111111111111111111111111000000000000000
00111110000111111111110000000001111110000000001111111111111111101000
00000001111110000000011111111111100000011100000000000111111111111111
11111111111111111111111111111111111111111111111111111111111111111111
11111100000000000111110000001111111111111000000000011111110000000000
00000000000000101111111100000000011111111111111100000001111111111111
11111111111111111111111111111111111111111111111111111111111111111111
11111111111111111111111000000000111110000011111111111111000000000001
11111100000000000000000000000111111111100000000111111111111111100000
00111111111111111111111111111111111111111111111111111111111111111111
11111111111111111111111111111111111111111111111111000000001111111111
11111110000000000000111111111111111111111110000000000000001111111111
11111111000000000111111111110001111111111111111111111111111111111111
11111111111111111111111111111111111111111111111111111111111111111000
00000111111111111111111000000000001111111111111111111111011000000000
00001111111111111111111000000000111111111111001111111111111111111111
11111111111111111111111111111111111111111111111111111111111111111000
00000000000000000000011111111111111111111100000000000000000000000000
00000000000000011111111111111111111111000000000000000000000011111111
11111111111111111111111111111111111111111111111111111111111111111111
11111111111100000000000000000000000111111111111111111111110000000000
00000000000000000000000000000111111111111111111111110100000000000000
00000001111111111111111111111111111111111111111111111111111111111111
11111111111111111111111111111000000000000000000000011111111111111111
11111111111100000000000000000000001111111111111111111111111100000001
00000000000000000011111111111111111111111111111111111111111111111111
11111111111111111111111111111111111111111111100000000000000000000001
11100111111111111111111111110000000000000000000000111111111111111111
11111110000000000000000000000000011111111111111111111111111111111111
11111111111111111111111111111111111111111111111111111111111111000000
00000000000001111000000111111111111111111111111111111111111111111111
11111111111111000000000000011110000000000011111111111111111111111111
11111111111111111111111111111111111111111111111111111111111111111111
11111110110000000000000000001111000000111111111111111111111111111111
11111111111111111111111111111100000000000011110000000000001111111111
11111111111111111111111111111111111111111111111111111111111111111111
11111111111111111111111111111111111111111111000000000000000000111111
11111111111111111111111111111111110000000000000000000000001111111111
11111111111111111111111111111111111111111111111111111111111111111111
11111111111111111111111111111111111111111111111111111111111100000000
00000000011111111111111111111111111111111111111110000000000000000000
00001111111111111111111111111111111111111111111111111111111111111111
11111111111111111111111111111111111111111111111111111111111111111111
11110000000000000000000000000000111111111111111111111111110000000000
00000000001111111111111111111111111111111111111111111111111111111111
11111111111111111111111111111111111111111111111111111111111111111111
11111111111111111111000000000000000000000000000011111111111111111111
11111100000000000000000001011111111111111111111111111111111111111111
11111111111111111111111111111111111111111111111111111111111111111111
11111111111111111111111111111111111111111111111111111111100000000000
11111111111111110000000000111111111111111111111111111111111111111111
11111111111111111111111111111111111111111111111111111111111111111111
11111111111111111111111111111111111111111111111111111111111111011111
11100000000000011111111111111111000000000111111111111111111111111111
11111111111111111111111111111111111111111111111111111111111111111111
11111111111111111111111111111111111111111111111111111111111111111111
11111111111111111111111111000000001111111111000000001111111111111111
11111111111111111111111111111111111111111111111111111111111111111111
11111111111111111111111111111111111111111111111111111111111111111111
11111111111111111111111111111111111111111000000001111111111100000001
11111111111111111111111111111111111111111111111111111111111111111111
11111111111111111111111111111111111111111111111111111111111111111111
11111111111111111111111111111111111111111111010010111010000000000111
11111100000000000001111010111111111111111111111111111111111111111111
11111111111111111111111111111111111111111111111111111111111111111111
11111111111111111111111111111111111111111111111111111111101000101001
00000000000111111111100000000000101001001011111111111111111111111111
11111111111111111111111111111111111111111111111111111111111111111111
11111111111111111111111111111111111111111111111111111111111111111111
11111111000000000000001111111111111111110000000000000111111111111111
11111111111111111111111111111111111111111111111111111111111111111111
11111111111111111111111111111111111111111111111111111111111111111111
11111111111111111111100000000000000000111111111111111000000000000001
11111111111111111111111111111111111111111111111111111111111111111111
11111111111111111111111111111111111111111111111111111111111111111111
11111111111111111111111111111111111111111110001011111111111111111111
11111111111111111111111111111111111111111111111111111111111111111111
11111111111111111111111111111111111111111111111111111111111111111111
11111111111111111111111111111111111111111111111111111111000000111111
11111111111111111111111111011111111111111111111111111111111111111111
11111111111111111111111111111111111111111111111111111111111111111111
11111111111111111111111111111111111111111111111111111111111111111111
11111111111111111111111111111111111111111111111111111111111111111111
11111111111111111111111111111111111111111111111111111111111111111111
11111111111111111111111111111111111111111111111111111111111111111111
11111111111111111111111111111111111111111111111111111111111111111111
11111111111111111111111111111111111111111111111111111111111111111111
11111111111111111111111111111111111111111111111111111111111111111111
11111111111111111111111111111111111111111111111111111111111111111111
11111111111111111111111111111111111111111111111111111111111111111111
11111111111111111111111111111111111111111111111111111111111111111111
11111111111111111111111111111111111111111111111111111111111111111111
11111111111111111111111111111111111111111111111111111111111111111111
11111111111111111111111111111111111111111111111111111111111111111111
11111111111111111111111111111111111111111111111111111111111111111111
11111111111111111111111111111111111111111111111111111111111111111111
11111111111111111111111111111111111111111111111111111111111111111111
11111111111111111111111111111111111111111111111111111111111111111111
11111111111111111111111111111111111111111111111111111111111111111111
11111111111111111111111111111111111111111111111111111111111111111111
11111111111111111111111111111111111111111111111111111111111111111111
11111111111111111111111111111111111111111111111111111111111111111111
11111111111111111111111111111111111111111111111111111111111111111111
11111111111111111111111111111111111111111111111111111111111111111111
11111111111111111111111111111111111111111111111111111111111111111111
11111111111111111111111111111111111111111111111111111111111111111111
11111111111111111111111111111111111111111111111111111111111111111111
11111111111111111111111111111111111111111111111111111111111111111111
11111111111111111111111111111111111111111111111111111111111111111111
11111111111111111111111111111111111111111111111111111111111111111111
11111111111111111111111111111111111111111111111111111111111111111111
11111111111111111111111111111111111111111111111111111111111111111111
11111111111111111111111111111111111111111111111111111111111111111111
11111111111111111111111111111111111111111111111111111111111111111111
11111111111111111111111111111111111111111111111111111111111111111111
11111111111111111111111111111111111111111111111111111111111111111111
11111111111111111111111111111111111111111111111111111111111111111111
11111111111111111111111111111111111111111111111111111111111111111111
11111111111111111111111111111111111111111111111111111111111111111111
11111111111111111111111111111111111111111111111111111111111111111111
11111111111111111111111111111111111111111111111111111111111111111111
11111111111111111111111111111111111111111111111111111111111111111111
11111111111111111111111111111111111111111111111111111111111111111111
11111111111111111111111111111111111111111111111111111111111111111111
11111111111111111111111111111111111111111111111111111111111111111111
11111111111111111111111111111111111111111111111111111111111111111111
11111111111111111111111111111111111111111111111111111111111111111111
11111111111111111111111111111111111111111111111111111111111111111111
11111111111111111111111111111111111111111111111111111111111111111111
11111111111111111111111111111111111111111111111111111111111111111111
11111111111111111111111111111111111111111111111111111111111111111111
11111111111111111111111111111111111111111111111111111111111111111111
11111111111111111111111111111111111111111111111111111111111111111111
11111111111111111111111111111111111111111111111111111111111111111111
11111111111111111111111111111111111111111111111111111111111111111111
11111111111111111111111111111111111111111111111111111111111111111111
11111111111111111111111111111111111111111111111111111111111111111111
11111111111111111111111111111111111111111111111111111111111111111111
11111111111111111111111111111111111111111111111111111111111111111111
11111111111111111111111111111111111111111111111111111111111111111111
11111111111111111111111111111111111111111111111111111111111111111111
11111111111111111111111111111111111111111111111111111111111111111111
11111111111111111111111111111111111111111111111111111111111111111111
11111111111111111111111111111111111111111111111111111111111111111111
11111111111111111111111111111111111111111111111111111111111111111111
11111111111
